<mxfile host="65bd71144e">
    <diagram id="sRB5dJURHglsn-K_oPhw" name="Page-1">
        <mxGraphModel dx="497" dy="367" grid="1" gridSize="10" guides="1" tooltips="1" connect="1" arrows="1" fold="1" page="1" pageScale="1" pageWidth="850" pageHeight="1100" math="0" shadow="0">
            <root>
                <mxCell id="0"/>
                <mxCell id="1" parent="0"/>
                <mxCell id="43" value="&lt;h1&gt;&lt;font color=&quot;#ffffff&quot;&gt;Caso 5&lt;/font&gt;&lt;/h1&gt;&lt;h1&gt;&lt;div style=&quot;font-size: 14px; line-height: 19px;&quot;&gt;&lt;h4 style=&quot;&quot;&gt;&lt;div style=&quot;&quot;&gt;&lt;span style=&quot;font-size: 16px; font-weight: 400;&quot;&gt;&lt;font color=&quot;#ffffff&quot;&gt;Confeccione una función que reciba tres parámetros numéricos enteros y retorne el promedio de los tres números. El algoritmo debe solicitarle al usuario los 3 valores numéricos y enviárselos a la función y luego imprimir el promedio de los valores leídos.&lt;/font&gt;&lt;/span&gt;&lt;br&gt;&lt;/div&gt;&lt;/h4&gt;&lt;/div&gt;&lt;/h1&gt;" style="text;html=1;strokeColor=none;fillColor=none;spacing=5;spacingTop=-20;whiteSpace=wrap;overflow=hidden;rounded=0;labelBackgroundColor=none;fontSize=11;fontColor=#D9D9D9;" parent="1" vertex="1">
                    <mxGeometry x="30" y="30" width="280" height="240" as="geometry"/>
                </mxCell>
                <mxCell id="104" value="" style="group" parent="1" vertex="1" connectable="0">
                    <mxGeometry x="270" y="230" width="565" height="240" as="geometry"/>
                </mxCell>
                <mxCell id="64" value="" style="edgeStyle=none;html=1;entryX=0;entryY=0;entryDx=0;entryDy=30;entryPerimeter=0;strokeWidth=3;endArrow=none;endFill=0;rounded=0;fillColor=#6d8764;strokeColor=#3A5431;" parent="104" target="65" edge="1">
                    <mxGeometry relative="1" as="geometry">
                        <mxPoint x="200" y="170" as="sourcePoint"/>
                        <Array as="points">
                            <mxPoint x="200" y="210"/>
                        </Array>
                    </mxGeometry>
                </mxCell>
                <mxCell id="68" value="&amp;nbsp; 0 &amp;lt; i &amp;lt; 3&amp;nbsp;&amp;nbsp;" style="edgeLabel;html=1;align=center;verticalAlign=middle;resizable=0;points=[];fontSize=13;" parent="64" vertex="1" connectable="0">
                    <mxGeometry x="0.4102" y="1" relative="1" as="geometry">
                        <mxPoint x="-26" y="1" as="offset"/>
                    </mxGeometry>
                </mxCell>
                <mxCell id="65" value="&lt;div style=&quot;line-height: 16px;&quot;&gt;&lt;span style=&quot;&quot;&gt;Ingrese el valor&lt;/span&gt;&lt;/div&gt;" style="shape=card;whiteSpace=wrap;html=1;fontFamily=Helvetica;fontColor=default;labelBackgroundColor=none;size=0;rounded=1;shadow=0;" parent="104" vertex="1">
                    <mxGeometry x="395" y="180" width="170" height="60" as="geometry"/>
                </mxCell>
                <mxCell id="71" value="numero" style="shape=parallelogram;perimeter=parallelogramPerimeter;whiteSpace=wrap;html=1;fixedSize=1;" parent="104" vertex="1">
                    <mxGeometry x="420" y="90" width="120" height="60" as="geometry"/>
                </mxCell>
                <mxCell id="72" value="" style="edgeStyle=none;html=1;strokeWidth=3;fontSize=13;endArrow=none;endFill=0;rounded=0;" parent="104" source="65" target="71" edge="1">
                    <mxGeometry relative="1" as="geometry">
                        <Array as="points"/>
                    </mxGeometry>
                </mxCell>
                <mxCell id="73" value="agregar numero a la listaNumeros" style="whiteSpace=wrap;html=1;" parent="104" vertex="1">
                    <mxGeometry x="390" width="150" height="60" as="geometry"/>
                </mxCell>
                <mxCell id="74" value="" style="edgeStyle=none;html=1;strokeWidth=3;fontSize=13;endArrow=none;endFill=0;entryX=0.579;entryY=1.01;entryDx=0;entryDy=0;entryPerimeter=0;" parent="104" source="71" target="73" edge="1">
                    <mxGeometry relative="1" as="geometry"/>
                </mxCell>
                <mxCell id="109" value="" style="group" parent="1" vertex="1" connectable="0">
                    <mxGeometry x="30.001166936790952" y="150" width="526.158833063209" height="620" as="geometry"/>
                </mxCell>
                <mxCell id="105" value="" style="group" parent="109" vertex="1" connectable="0">
                    <mxGeometry width="510.15883306320904" height="620" as="geometry"/>
                </mxCell>
                <mxCell id="50" value="&lt;h1&gt;Promedio&lt;/h1&gt;" style="ellipse;whiteSpace=wrap;html=1;" parent="105" vertex="1">
                    <mxGeometry y="370" width="160.25931928687197" height="80" as="geometry"/>
                </mxCell>
                <mxCell id="103" value="" style="group" parent="105" vertex="1" connectable="0">
                    <mxGeometry x="17.027552674230094" width="493.1312803889789" height="620" as="geometry"/>
                </mxCell>
                <mxCell id="55" value="" style="group" parent="103" vertex="1" connectable="0">
                    <mxGeometry x="299.48460291734193" width="153.58184764991896" height="150" as="geometry"/>
                </mxCell>
                <mxCell id="56" value="&lt;h1&gt;Inicio&lt;/h1&gt;" style="ellipse;whiteSpace=wrap;html=1;" parent="55" vertex="1">
                    <mxGeometry x="10.97013197499421" width="131.64158369993052" height="80" as="geometry"/>
                </mxCell>
                <mxCell id="57" value="&lt;div style=&quot;line-height: 16px;&quot;&gt;&lt;span style=&quot;&quot;&gt;vector&lt;/span&gt;&lt;span style=&quot;&quot;&gt;&amp;lt;&lt;/span&gt;&lt;span style=&quot;&quot;&gt;int&lt;/span&gt;&lt;span style=&quot;&quot;&gt;&amp;gt;&lt;/span&gt; listaNumeros&lt;/div&gt;" style="rounded=0;whiteSpace=wrap;html=1;fontColor=default;labelBackgroundColor=none;" parent="55" vertex="1">
                    <mxGeometry y="120" width="153.58184764991896" height="30" as="geometry"/>
                </mxCell>
                <mxCell id="58" style="edgeStyle=none;html=1;exitX=0.5;exitY=1;exitDx=0;exitDy=0;strokeWidth=3;endArrow=none;endFill=0;" parent="55" source="56" target="57" edge="1">
                    <mxGeometry relative="1" as="geometry"/>
                </mxCell>
                <mxCell id="61" value="parametro a, b, c" style="whiteSpace=wrap;html=1;" parent="103" vertex="1">
                    <mxGeometry y="490" width="126.20421393841167" height="60" as="geometry"/>
                </mxCell>
                <mxCell id="41" value="(a + b + c) / 3" style="rounded=0;whiteSpace=wrap;html=1;" parent="103" vertex="1">
                    <mxGeometry x="14.690437601296596" y="575" width="96.82333873581847" height="30" as="geometry"/>
                </mxCell>
                <mxCell id="97" style="edgeStyle=none;rounded=0;html=1;exitX=0.5;exitY=1;exitDx=0;exitDy=0;entryX=0.5;entryY=0;entryDx=0;entryDy=0;strokeWidth=3;fontFamily=Helvetica;fontSize=13;fontColor=default;endArrow=none;endFill=0;endSize=0;" parent="103" source="61" target="41" edge="1">
                    <mxGeometry relative="1" as="geometry"/>
                </mxCell>
                <mxCell id="99" value="&lt;div style=&quot;line-height: 16px;&quot;&gt;&lt;span style=&quot;&quot;&gt;imprime el resultado en pantalla&lt;/span&gt;&lt;/div&gt;" style="shape=card;whiteSpace=wrap;html=1;fontFamily=Helvetica;fontColor=default;labelBackgroundColor=none;size=0;rounded=1;shadow=0;" parent="103" vertex="1">
                    <mxGeometry x="291.03999999999996" y="560" width="170.48" height="60" as="geometry"/>
                </mxCell>
                <mxCell id="106" value="" style="group" parent="103" vertex="1" connectable="0">
                    <mxGeometry x="259.419773095624" y="180" width="233.71150729335488" height="370" as="geometry"/>
                </mxCell>
                <mxCell id="45" value="&lt;div style=&quot;line-height: 16px;&quot;&gt;a &lt;span style=&quot;&quot;&gt;=&lt;/span&gt; listaNumeros&lt;span style=&quot;&quot;&gt;[&lt;/span&gt;&lt;span style=&quot;&quot;&gt;0&lt;/span&gt;&lt;span style=&quot;&quot;&gt;]&lt;/span&gt;&lt;/div&gt;" style="shape=card;whiteSpace=wrap;html=1;align=center;size=0;fontColor=default;labelBackgroundColor=none;fontFamily=Helvetica;" parent="106" vertex="1">
                    <mxGeometry y="160" width="233.7115072933549" height="40" as="geometry"/>
                </mxCell>
                <mxCell id="46" value="promedio (a,b,c)" style="shape=parallelogram;perimeter=parallelogramPerimeter;whiteSpace=wrap;html=1;fixedSize=1;" parent="106" vertex="1">
                    <mxGeometry x="24.706645056726018" y="340" width="184.29821717990276" height="30" as="geometry"/>
                </mxCell>
                <mxCell id="47" style="edgeStyle=none;html=1;exitX=0.5;exitY=1;exitDx=0;exitDy=0;exitPerimeter=0;entryX=0.5;entryY=0;entryDx=0;entryDy=0;strokeWidth=3;endArrow=none;endFill=0;" parent="106" source="45" target="46" edge="1">
                    <mxGeometry relative="1" as="geometry">
                        <Array as="points"/>
                    </mxGeometry>
                </mxCell>
                <mxCell id="53" style="edgeStyle=none;html=1;entryX=0.5;entryY=0;entryDx=0;entryDy=0;entryPerimeter=0;strokeWidth=3;endArrow=none;endFill=0;exitX=0.5;exitY=1;exitDx=0;exitDy=0;fillColor=#e51400;strokeColor=#B20000;" parent="106" target="45" edge="1">
                    <mxGeometry relative="1" as="geometry">
                        <mxPoint x="116.85575364667744" y="100" as="sourcePoint"/>
                    </mxGeometry>
                </mxCell>
                <mxCell id="78" value="i &amp;gt; 3" style="edgeLabel;html=1;align=center;verticalAlign=middle;resizable=0;points=[];fontSize=13;fontFamily=Helvetica;fontColor=default;" parent="53" vertex="1" connectable="0">
                    <mxGeometry x="0.0192" y="1" relative="1" as="geometry">
                        <mxPoint as="offset"/>
                    </mxGeometry>
                </mxCell>
                <mxCell id="54" style="edgeStyle=none;html=1;exitX=0.5;exitY=1;exitDx=0;exitDy=0;strokeWidth=3;endArrow=none;endFill=0;entryX=0.5;entryY=0;entryDx=0;entryDy=0;" parent="106" source="57" edge="1">
                    <mxGeometry relative="1" as="geometry">
                        <mxPoint x="143.5656401944891" y="-30" as="sourcePoint"/>
                        <mxPoint x="116.85575364667744" y="70" as="targetPoint"/>
                    </mxGeometry>
                </mxCell>
                <mxCell id="62" value="for i = 0 to 3&amp;nbsp;" style="rhombus;whiteSpace=wrap;html=1;" parent="106" vertex="1">
                    <mxGeometry x="70.11345218800648" width="93.48460291734197" height="110" as="geometry"/>
                </mxCell>
                <mxCell id="94" value="&lt;div style=&quot;font-size: 12px; line-height: 16px;&quot;&gt;b &lt;span style=&quot;&quot;&gt;=&lt;/span&gt; listaNumeros&lt;span style=&quot;&quot;&gt;[&lt;/span&gt;&lt;span style=&quot;&quot;&gt;1&lt;/span&gt;&lt;span style=&quot;&quot;&gt;]&lt;/span&gt;&lt;/div&gt;" style="rounded=0;whiteSpace=wrap;html=1;shadow=0;labelBackgroundColor=none;fontFamily=Helvetica;fontSize=13;fontColor=default;" parent="106" vertex="1">
                    <mxGeometry x="2.6709886547811834" y="210" width="231.04051863857373" height="40" as="geometry"/>
                </mxCell>
                <mxCell id="95" value="&lt;div style=&quot;font-size: 12px; line-height: 16px;&quot;&gt;c &lt;span style=&quot;&quot;&gt;=&lt;/span&gt; listaNumeros&lt;span style=&quot;&quot;&gt;[&lt;/span&gt;&lt;span style=&quot;&quot;&gt;2&lt;/span&gt;&lt;span style=&quot;&quot;&gt;]&lt;/span&gt;&lt;/div&gt;" style="rounded=0;whiteSpace=wrap;html=1;shadow=0;labelBackgroundColor=none;fontFamily=Helvetica;fontSize=13;fontColor=default;" parent="106" vertex="1">
                    <mxGeometry x="2.6709886547811834" y="260" width="231.04051863857373" height="40" as="geometry"/>
                </mxCell>
                <mxCell id="98" style="edgeStyle=none;rounded=0;html=1;exitX=1;exitY=0.5;exitDx=0;exitDy=0;strokeWidth=3;fontFamily=Helvetica;fontSize=13;fontColor=default;endArrow=classic;endFill=1;endSize=3;entryX=0;entryY=0;entryDx=0;entryDy=30;entryPerimeter=0;startArrow=none;startFill=0;" parent="103" source="41" target="99" edge="1">
                    <mxGeometry relative="1" as="geometry">
                        <mxPoint x="323.52350081037275" y="585" as="targetPoint"/>
                    </mxGeometry>
                </mxCell>
                <mxCell id="100" style="edgeStyle=none;rounded=0;html=1;exitX=0.5;exitY=1;exitDx=0;exitDy=0;strokeWidth=3;fontFamily=Helvetica;fontSize=13;fontColor=default;endArrow=none;endFill=0;endSize=0;" parent="103" source="46" target="99" edge="1">
                    <mxGeometry relative="1" as="geometry"/>
                </mxCell>
                <mxCell id="96" style="edgeStyle=none;rounded=0;html=1;exitX=0.5;exitY=1;exitDx=0;exitDy=0;strokeWidth=3;fontFamily=Helvetica;fontSize=13;fontColor=default;endArrow=none;endFill=0;endSize=0;" parent="105" source="50" target="61" edge="1">
                    <mxGeometry relative="1" as="geometry"/>
                </mxCell>
                <mxCell id="51" style="edgeStyle=orthogonalEdgeStyle;html=1;exitX=0;exitY=0.5;exitDx=0;exitDy=0;startArrow=none;startFill=0;endArrow=classic;endFill=1;strokeWidth=3;entryX=1;entryY=0.5;entryDx=0;entryDy=0;" parent="105" source="46" target="50" edge="1">
                    <mxGeometry relative="1" as="geometry">
                        <mxPoint x="319.8508914100486" y="350" as="targetPoint"/>
                    </mxGeometry>
                </mxCell>
                <mxCell id="75" style="edgeStyle=none;html=1;exitX=0;exitY=0.5;exitDx=0;exitDy=0;strokeWidth=3;fontSize=13;endArrow=classic;endFill=1;entryX=1;entryY=0.5;entryDx=0;entryDy=0;rounded=0;endSize=0;" parent="1" source="73" target="62" edge="1">
                    <mxGeometry relative="1" as="geometry">
                        <mxPoint x="1696.158833063209" y="55" as="targetPoint"/>
                        <Array as="points"/>
                    </mxGeometry>
                </mxCell>
                <mxCell id="76" value="&amp;nbsp; i incrementa 1&amp;nbsp;&amp;nbsp;" style="edgeLabel;html=1;align=center;verticalAlign=middle;resizable=0;points=[];fontSize=13;" parent="75" vertex="1" connectable="0">
                    <mxGeometry x="-0.375" y="-2" relative="1" as="geometry">
                        <mxPoint as="offset"/>
                    </mxGeometry>
                </mxCell>
            </root>
        </mxGraphModel>
    </diagram>
</mxfile>